<?xml version="1.0" encoding="UTF-8" standalone="no"?>
<svg
   viewBox="0 0 48 48"
   version="1.1"
   id="svg591"
   sodipodi:docname="user-desktop.svg"
   inkscape:version="1.2.2 (b0a8486541, 2022-12-01)"
   xmlns:inkscape="http://www.inkscape.org/namespaces/inkscape"
   xmlns:sodipodi="http://sodipodi.sourceforge.net/DTD/sodipodi-0.dtd"
   xmlns:xlink="http://www.w3.org/1999/xlink"
   xmlns="http://www.w3.org/2000/svg"
   xmlns:svg="http://www.w3.org/2000/svg">
  <defs
     id="defs595" />
  <sodipodi:namedview
     id="namedview593"
     pagecolor="#ffffff"
     bordercolor="#000000"
     borderopacity="0.25"
     inkscape:showpageshadow="2"
     inkscape:pageopacity="0.0"
     inkscape:pagecheckerboard="0"
     inkscape:deskcolor="#d1d1d1"
     showgrid="false"
     inkscape:zoom="5.6145833"
     inkscape:cx="43.458256"
     inkscape:cy="21.55102"
     inkscape:window-width="1366"
     inkscape:window-height="710"
     inkscape:window-x="0"
     inkscape:window-y="0"
     inkscape:window-maximized="1"
     inkscape:current-layer="layer1-36" />
  <linearGradient
     id="a"
     x1="42.798412"
     x2="12.000011"
     y1="5.341264"
     y2="31.355107"
     gradientUnits="userSpaceOnUse">
    <stop
       stop-color="#1abc9c"
       offset="0"
       id="stop538" />
    <stop
       stop-color="#2980b9"
       offset="1"
       id="stop540" />
  </linearGradient>
  <linearGradient
     id="b"
     x1="29.85095"
     x2="54.317608"
     y1="22.348567"
     y2="28.506301"
     gradientUnits="userSpaceOnUse">
    <stop
       stop-color="#cc4a5e"
       offset="0"
       id="stop543" />
    <stop
       stop-color="#aa478a"
       offset="1"
       id="stop545" />
  </linearGradient>
  <linearGradient
     id="c"
     x1="24.393862"
     x2="20.645595"
     y1="41.223652"
     y2="25.343179"
     gradientUnits="userSpaceOnUse"
     xlink:href="#d" />
  <linearGradient
     id="d">
    <stop
       stop-color="#334545"
       offset="0"
       id="stop549" />
    <stop
       stop-color="#536161"
       offset="1"
       id="stop551" />
  </linearGradient>
  <linearGradient
     id="e"
     x1="431.57141"
     x2="439.57141"
     y1="568.79803"
     y2="562.79803"
     gradientTransform="matrix(-1 0 0 1 839.14285 -40.00001)"
     gradientUnits="userSpaceOnUse"
     xlink:href="#d" />
  <linearGradient
     id="f"
     x1="406.53735"
     x2="423.31955"
     y1="581.87024"
     y2="572.67786"
     gradientTransform="matrix(-.91666628 0 0 .91666628 428.69029 -492.4813)"
     gradientUnits="userSpaceOnUse"
     xlink:href="#d" />
  <linearGradient
     id="g"
     x1="423.05438"
     x2="431.22452"
     y1="572.33411"
     y2="566.76562"
     gradientTransform="matrix(-.91666628 0 0 .91666628 448.69029 -492.4813)"
     gradientUnits="userSpaceOnUse"
     xlink:href="#d" />
  <linearGradient
     id="h"
     x1="431.3129"
     x2="440.63208"
     y1="577.10217"
     y2="571.44531"
     gradientTransform="matrix(-.91666628 0 0 .91666628 428.69029 -492.4813)"
     gradientUnits="userSpaceOnUse"
     xlink:href="#d" />
  <linearGradient
     id="i"
     x1="430.56738"
     x2="423.74994"
     y1="577.36243"
     y2="591.32782"
     gradientTransform="matrix(-.91666628 0 0 .91666628 428.69029 -492.4813)"
     gradientUnits="userSpaceOnUse"
     xlink:href="#d" />
  <g
     transform="matrix(.83653804 0 0 1.0999992 -317.70862 -548.17744)"
     id="g579">
    <path
       transform="matrix(1.0909096 0 0 1.0909096 371.48052 497.25255)"
       d="m12 6v30l43.831392 3.4e-5v-30.000008z"
       fill="url(#a)"
       id="path559" />
    <g
       stroke-linecap="round"
       stroke-width="2"
       id="g577">
      <path
         transform="matrix(1.0909096 0 0 1.0909096 371.48052 497.25255)"
         d="m55.831392 6.0000264-30.112642 17.482396 21.681641 12.517578 8.431001 3.4e-5z"
         fill="url(#b)"
         id="path561"
         style="fill:#00ffff" />
      <path
         transform="matrix(1.0909096 0 0 1.0909096 371.48052 497.25255)"
         d="m25.75 23.416016-13.75 7.939453v4.644531h35.605469z"
         fill="url(#c)"
         id="path563" />
      <path
         d="m407.82995 527.56606-8.25852-4.76806v9.53611z"
         fill="url(#e)"
         id="path565" />
      <path
         transform="matrix(1.0909096 0 0 1.0909096 371.48052 497.25255)"
         d="m40.890625 32.15625v3.84375h6.65625z"
         fill="url(#f)"
         id="path567" />
      <path
         transform="matrix(1.0909096 0 0 1.0909096 349.66233 497.25255)"
         d="m53.320312 27.787109v8.212891h.916016l6.654297-3.841797z"
         fill="url(#g)"
         id="path569" />
      <path
         transform="matrix(1.0909096 0 0 1.0909096 371.48052 497.25255)"
         d="m25.75 32.158203v3.841797h6.654297z"
         fill="url(#h)"
         id="path571" />
      <path
         transform="matrix(1.0909096 0 0 1.0909096 371.48052 497.25255)"
         d="m40.890625 32.15625-6.65625 3.84375h6.65625z"
         fill="url(#i)"
         id="path573" />
      <path
         d="m399.53737 522.87024 32.85015-19.0722v9.35561z"
         fill="#aa478a"
         id="path575"
         style="fill:#00ffff" />
    </g>
    <g
       inkscape:label="Capa 1"
       id="layer1-3"
       transform="matrix(1.1954029,0,0,0.90909157,-67.969539,33.591723)" />
    <g
       id="layer1-36"
       transform="matrix(0.12175328,0,0,0.07735997,396.09025,511.18391)" />
  </g>
  <g
     transform="matrix(.69230765 0 0 .69230765 -264.31867 -333.0909)"
     id="g589">
    <path
       d="m387.57142 536.02022 1e-5 5.77778 57.77777-1e-5v-5.77777z"
       fill="#fff"
       fill-opacity=".784314"
       stroke-width="1.154701"
       id="path581" />
    <g
       fill="#4d4d4d"
       stroke-width="1.444445"
       id="g587">
      <circle
         cx="442.46033"
         cy="538.90906"
         r="1.444445"
         id="circle583" />
      <path
         d="m389.01588 537.46467v1.44444h1.44444v-1.44444zm1.44444 1.44444v1.44445h1.44445v-1.44445z"
         id="path585" />
    </g>
  </g>
</svg>
